<?xml version="1.0" encoding="iso-8859-1"?>
<!-- Uploaded to: SVG Repo, www.svgrepo.com, Generator: SVG Repo Mixer Tools -->
<!DOCTYPE svg PUBLIC "-//W3C//DTD SVG 1.1//EN" "http://www.w3.org/Graphics/SVG/1.1/DTD/svg11.dtd">
<svg fill="#000000" height="800px" width="800px" version="1.1" id="Capa_1" xmlns="http://www.w3.org/2000/svg" xmlns:xlink="http://www.w3.org/1999/xlink" 
	 viewBox="0 0 297 297" xml:space="preserve">
<path d="M295.201,223.012c-7.776-12.323-29.368-50.347-29.368-50.347V37.374c0-5.522-4.478-10-10-10h-84.514
	c-0.578-0.057-1.166-0.074-1.765-0.028c-0.053,0.004-0.161,0.014-0.298,0.028H41.167c-5.522,0-10,4.478-10,10v135.29
	c0,0-21.667,37.809-29.437,50.077C0.693,224.379,0,226.819,0,228.903v30.777c0,5.522,4.478,10,10,10h277c5.522,0,10-4.478,10-10
	v-30.777C297,226.819,296.235,224.651,295.201,223.012z M134.544,91.991l-25.386,41.531l-25.813-15.778l25.385-41.531l9.69-2.338
	c0.417,3.586,2.762,6.823,6.369,8.198c1.172,0.446,2.374,0.658,3.558,0.658c1.309,0,2.591-0.263,3.781-0.749L134.544,91.991z
	 M51.167,47.374h80.861c-0.938,1.051-1.863,2.147-2.767,3.311l-29.249,7.058c-2.578,0.622-4.804,2.242-6.187,4.506l-32.761,53.598
	c-1.383,2.263-1.811,4.982-1.188,7.561s2.242,4.804,4.506,6.187l42.878,26.208c1.628,0.995,3.428,1.469,5.205,1.469
	c3.368,0,6.657-1.701,8.542-4.786l32.761-53.598c1.383-2.263,1.811-4.982,1.188-7.561l-7.51-31.122
	c9.278-10.067,20.095-12.374,23.048-12.829h75.338v118H51.167V47.374z M46.902,185.374h203.195l18.966,32.417H27.937L46.902,185.374
	z M277,249.68H20v-10.777h257V249.68z"/>
</svg>